<svg id="Layer_3" enable-background="new 0 0 64 64" height="512" viewBox="0 0 64 64" width="512" xmlns="http://www.w3.org/2000/svg"><g><path d="m26 5c-1.846 0-3.587.693-5 1.974-1.413-1.281-3.154-1.974-5-1.974-4.411 0-8 4.037-8 9 0 2.733 1.113 5.32 3 7.021.002 4.082.658 8.114 1.948 11.986l.787 2.361c.327.977 1.237 1.632 2.265 1.632s1.938-.655 2.265-1.632l2.456-7.368h.559l2.456 7.369c.326.976 1.236 1.631 2.264 1.631s1.938-.655 2.266-1.632l.785-2.36c1.291-3.872 1.947-7.904 1.949-11.986 1.887-1.701 3-4.288 3-7.021 0-4.964-3.589-9.001-8-9.001zm3.376 14.778c-.237.19-.376.477-.376.782v.441c0 3.873-.621 7.7-1.847 11.374l-.785 2.359c-.107.318-.629.317-.736.001l-2.684-8.052c-.136-.408-.517-.683-.948-.683h-2c-.431 0-.812.275-.948.684l-2.684 8.051c-.107.318-.63.317-.735.001l-.787-2.36c-1.225-3.675-1.846-7.502-1.846-11.376v-.44c0-.305-.139-.592-.376-.781-1.644-1.312-2.624-3.471-2.624-5.779 0-3.859 2.691-7 6-7 1.599 0 3.104.73 4.24 2.057.381.443 1.139.443 1.52 0 1.136-1.327 2.641-2.057 4.24-2.057 3.309 0 6 3.141 6 7 0 2.308-.98 4.467-2.624 5.778z"/><path d="m19.937 13.352-1.873-.703-.658 1.754-1.851-1.234-1.109 1.664 2.239 1.493-.803 2.142-2.174-2.174-1.414 1.414 2.817 2.817-.047.124c-.043.112-.064.231-.064.351v9h2v-5.28l2.316-.772-.633-1.896-1.683.561v-1.431l.818-2.182h2.182v-2h-1.432z"/><path d="m26.119 18.467-.803-2.142 2.239-1.493-1.109-1.664-1.851 1.234-.658-1.754-1.873.703 1.368 3.649h-1.432v2h2.182l.818 2.182v1.431l-1.684-.561-.633 1.896 2.317.772v5.28h2v-9c0-.12-.021-.239-.063-.352l-.047-.124 2.817-2.817-1.414-1.414z"/><path d="m62.707 54.293-21-21c-.391-.391-1.023-.391-1.414 0l-1.293 1.293-1.844-1.844c2.406-3.302 3.844-7.353 3.844-11.742 0-11.028-8.972-20-20-20s-20 8.972-20 20 8.972 20 20 20c4.389 0 8.44-1.438 11.741-3.844l1.845 1.844-1.293 1.293c-.391.391-.391 1.023 0 1.414l21 21c.195.195.451.293.707.293s.512-.098.707-.293l7-7c.391-.391.391-1.023 0-1.414zm-59.707-33.293c0-9.925 8.075-18 18-18s18 8.075 18 18-8.075 18-18 18-18-8.075-18-18zm31.305 14.891c.558-.499 1.087-1.028 1.586-1.586l1.695 1.695-1.586 1.586zm20.695 24.695-19.586-19.586 5.586-5.586 19.586 19.586z"/><path d="m10 53h-8c-.553 0-1 .447-1 1v8c0 .553.447 1 1 1h8c.553 0 1-.447 1-1v-8c0-.553-.447-1-1-1zm-1 8h-6v-6h6z"/><path d="m10 41h-8c-.553 0-1 .447-1 1v8c0 .553.447 1 1 1h8c.553 0 1-.447 1-1v-8c0-.553-.447-1-1-1zm-1 8h-6v-6h6z"/><path d="m13 49h19v2h-19z"/><path d="m13 45h19v2h-19z"/><path d="m13 61h19v2h-19z"/><path d="m13 57h19v2h-19z"/></g></svg>