<svg id="Layer_1" height="512" viewBox="0 0 512 512" width="512" xmlns="http://www.w3.org/2000/svg" data-name="Layer 1"><path d="m497.215 327.328-31.072-6.428a55.106 55.106 0 0 0 -40.108 7.009 43.371 43.371 0 0 1 -43.654.941l-15.281-8.486c-.148-1.832-.3-3.591-.435-5.264-1.362-16.21-1.812-23.623 1.81-29.474 4.11-6.639 14.635-13.041 33.881-23.257 12.6-6.686 22.4-19.043 28.346-35.735 5.461-15.33 7.137-33.26 4.72-50.488-4.964-35.383-25.214-60.969-54.63-69.561l5.37-34.892a19.4 19.4 0 1 0 -38.533-4.326l-2.611 36.733a132.978 132.978 0 0 0 -19.527 3.837c-18.3 4.988-27.891 10.936-38.045 17.233a161.548 161.548 0 0 1 -24.734 13.186c-.278.116-.549.246-.814.385-2.423-1.323-5.356-3.016-8.612-4.9-16.854-9.733-42.325-24.442-63.987-27.315-47.166-6.258-83.22 14.714-96.446 56.091-12.67 39.637.639 84.387 29.668 99.755 19.241 10.187 29.764 16.576 33.881 23.225 3.622 5.852 3.172 13.262 1.809 29.465q-.264 3.135-.547 6.643l-9.858 12.064a43.483 43.483 0 0 1 -60.675 6.4 55.358 55.358 0 0 0 -64.21-3.578l-10.129 6.409a6 6 0 0 0 6.416 10.14l10.13-6.41a43.357 43.357 0 0 1 50.289 2.8 55.494 55.494 0 0 0 77.118-7.762c-.354 31.176 3.857 84.854 33.618 115.606a18.867 18.867 0 0 0 32.079-16.42c-.473-4.913-8.392-94.106 29.558-140.3a14.011 14.011 0 0 1 21.488.107c37.2 46.416 29.408 135.272 28.94 140.2a18.422 18.422 0 0 0 18.379 21.7 19.1 19.1 0 0 0 6.224-1.043 18.658 18.658 0 0 0 7.476-4.244c32.207-33.274 34.493-93.406 33.45-122.808l8.6 4.775a55.382 55.382 0 0 0 55.752-1.2 43.151 43.151 0 0 1 31.4-5.488l31.073 6.428a6 6 0 0 0 2.43-11.751zm-129.135-217.047-11.371-1.416.354-4.983 11.776 1.467zm-14.667 44.979 7.6.947-14.239 92.511zm9.425-10.919-8.573-1.068.37-5.217 9 1.121zm2.621-17.03-9.972-1.242.37-5.217 10.4 1.3zm1.08-65.959c.15-.01.3-.014.45-.014a7.4 7.4 0 0 1 7.311 8.53l-3.635 23.616-12.75-1.584 1.685-23.683a7.423 7.423 0 0 1 6.939-6.865zm-197.057 263.148c.231-3.015.467-5.819.687-8.436 1.433-17.034 2.3-27.317-3.564-36.786-5.632-9.1-16.419-15.841-38.469-27.514-23.728-12.562-34.651-51.715-23.853-85.5 5.432-16.994 24.433-55.678 83.438-47.85 19.3 2.56 43.531 16.553 59.564 25.812 4.837 2.793 9.014 5.2 12.116 6.747 31.26 15.547 49.026 14.584 59.669 12.508a6 6 0 1 0 -2.3-11.778c-11.555 2.253-24.663.253-40.638-6.289a199.089 199.089 0 0 0 17.635-10.057c9.8-6.076 18.263-11.324 34.878-15.854a123.293 123.293 0 0 1 15.5-3.206l-12.517 176.269a73.792 73.792 0 0 0 -110.19-28.511c2.517-12.941 1.34-25.913-8.763-34.467a6 6 0 1 0 -7.754 9.158c9.115 7.718 5.664 23.594 1.164 35.554-1.2 3.189-2.542 6.278-3.9 9.158a73.926 73.926 0 0 0 -10.236 18.342 5.944 5.944 0 0 0 -.467 1.268 73.689 73.689 0 0 0 -4.255 30.913l7.682 110.407c-23.197-28.736-28.477-79.996-25.427-119.888zm93.218-40.811a25.711 25.711 0 0 0 -19.972 9.348c-41.991 51.112-32.62 145.39-32.2 149.378.017.165.041.328.072.49a6.81 6.81 0 0 1 -.434 3.987 6.151 6.151 0 0 1 -2.844 3l-6.122-88.021a127.377 127.377 0 0 1 4.028-24.209c2.964-10.776 8.657-24.284 18.942-27.434a6 6 0 0 0 -3.515-11.474c-9.523 2.917-16.177 10.594-20.824 19.625a62.194 62.194 0 0 1 2.956-11.3 158.566 158.566 0 0 0 9.671-17.3c.789-.994 1.6-1.973 2.454-2.919l4.031-4.468a61.778 61.778 0 0 1 89.569-2.288 61.894 61.894 0 0 1 17.993 46.93l-.128 2.746c-4.323-6.413-10.489-11.378-19.278-12.872a5.977 5.977 0 0 0 -6.976 6.443 121.087 121.087 0 0 0 -17.268-30.094 25.65 25.65 0 0 0 -20.155-9.568zm52.005 163.2a6.793 6.793 0 0 1 -.434-3.987c.031-.163.055-.328.072-.494.335-3.208 6.454-65.143-12.975-115.9a5.973 5.973 0 0 0 3.716 2.225c20.5 3.487 19.3 43.828 19.277 44.3l-3.613 77.622a6.505 6.505 0 0 1 -6.043-3.763zm18.552-6.883 1.949-41.884a5.947 5.947 0 0 0 1.12-2.643l42.618-276.9c23.922 7.717 40.406 29.39 44.593 59.231 4.519 32.21-6.756 63.313-26.808 73.957-22.051 11.7-32.837 18.458-38.459 27.54-5.861 9.468-5 19.753-3.565 36.794.219 2.606.453 5.4.683 8.4 2.902 37.953-1.734 86.199-22.131 115.508z"/></svg>